<svg width="95" height="95" viewBox="0 0 95 95" fill="none" xmlns="http://www.w3.org/2000/svg">
<path fill-rule="evenodd" clip-rule="evenodd" d="M52.7207 35.7211L72.0622 30.5386C72.8814 30.3189 73.6775 30.1054 74.3578 30.0177C75.1248 29.9189 76.0345 29.935 76.9242 30.4487C77.8139 30.9624 78.2828 31.7422 78.5807 32.4558C78.8449 33.0888 79.0581 33.885 79.2774 34.7043L79.3338 34.9145C79.5534 35.7337 79.7669 36.5298 79.8546 37.2102C79.9534 37.9771 79.9373 38.8868 79.4236 39.7765C78.91 40.6662 78.1303 41.135 77.4167 41.4329C76.7837 41.6972 75.9875 41.9104 75.1683 42.1297L60.2864 46.1178L74.4465 60.2779C75.0463 60.8774 75.6292 61.4601 76.0452 62.0054C76.5143 62.6202 76.9552 63.4163 76.9552 64.4436C76.9552 65.4709 76.5143 66.2668 76.0452 66.8815C75.6292 67.4269 75.0463 68.0096 74.4464 68.6091L74.2925 68.7631C73.6929 69.3629 73.1102 69.9458 72.5649 70.3619C71.9501 70.831 71.154 71.2719 70.1267 71.2719C69.0993 71.2718 68.3035 70.8309 67.6887 70.3618C67.1434 69.9458 66.5607 69.3628 65.9611 68.763L55.0683 57.8695L49.8853 77.2126C49.666 78.0319 49.4528 78.8281 49.1886 79.4611C48.8907 80.1748 48.4218 80.9545 47.5322 81.4682C46.6425 81.9819 45.7327 81.998 44.9658 81.8992C44.2855 81.8115 43.4894 81.598 42.6702 81.3784L42.4599 81.322C41.6406 81.1027 40.8444 80.8895 40.2114 80.6253C39.4978 80.3274 38.718 79.8585 38.2043 78.9688C37.6907 78.0791 37.6745 77.1694 37.7734 76.4025C37.861 75.7221 38.0745 74.926 38.2942 74.1068L42.2816 59.2257L22.9402 64.4082C22.121 64.6279 21.3248 64.8414 20.6445 64.9291C19.8775 65.0279 18.9678 65.0118 18.0781 64.4981C17.1884 63.9845 16.7196 63.2047 16.4217 62.491C16.1574 61.858 15.9442 61.0617 15.7249 60.2423L15.6686 60.0323C15.4489 59.2132 15.2354 58.4169 15.1477 57.7367C15.0489 56.9697 15.065 56.06 15.5787 55.1703C16.0923 54.2806 16.8721 53.8118 17.5857 53.5139C18.2187 53.2496 19.0148 53.0364 19.8341 52.8171L34.716 48.829L20.5559 34.669C19.9561 34.0694 19.3732 33.4867 18.9571 32.9414C18.488 32.3266 18.0472 31.5305 18.0471 30.5032C18.0472 29.4759 18.488 28.6801 18.9571 28.0653C19.3732 27.52 19.9561 26.9372 20.5559 26.3376L20.7097 26.1839C21.3093 25.584 21.8921 25.001 22.4375 24.5849C23.0522 24.1158 23.8483 23.675 24.8757 23.6749C25.903 23.675 26.6989 24.1159 27.3137 24.585C27.859 25.0011 28.4416 25.584 29.0412 26.1838L39.934 37.0773L45.117 17.7342C45.3363 16.9149 45.5495 16.1187 45.8138 15.4857C46.1117 14.7721 46.5805 13.9923 47.4702 13.4786C48.3599 12.965 49.2696 12.9488 50.0366 13.0476C50.7169 13.1353 51.513 13.3488 52.3322 13.5685L52.5424 13.6248C53.3617 13.8442 54.1579 14.0573 54.7909 14.3216C55.5045 14.6195 56.2843 15.0883 56.798 15.978C57.3117 16.8677 57.3278 17.7774 57.229 18.5444C57.1413 19.2247 56.9278 20.0208 56.7082 20.8399L52.7207 35.7211Z" fill="#FF4343"/>
</svg>
